# xmcd
# Track frame offsets:
# 150
# 18101
# 35809
# 56623
# 78669
# 95140
#
# Disc length: 1501 seconds
# Revision: 0
# Processed by: cddbd v1.5.2PL0 Copyright (c) Steve Scherf et al.
# Submitted via: VisiTrax 2.11.1.266 - For more info visit www.synapsa.com
#
DISCID=4905db06
DTITLE=Swift, Taylor - Speak Now (Target Exclusive Disk 2)
DYEAR=2010
DGENRE=Country
TTITLE0=Ours
TTITLE1=If This Was A Movie
TTITLE2=Superman
TTITLE3=Back to December (Acoustic)
TTITLE4=Haunted (Acoustic)
TTITLE5=Mine (Pop Mix)
EXTD=The 2nd disk was a Target Exclusive Disk that has 6 extra songs and 2 vi
EXTD=deos with 'The Making of Mine' and the "Mine" video.
EXTT0=
EXTT1=
EXTT2=
EXTT3=
EXTT4=
EXTT5=
PLAYORDER=
